<?xml version="1.0" encoding="utf-8"?>
<!-- Generator: Adobe Illustrator 23.0.2, SVG Export Plug-In . SVG Version: 6.00 Build 0)  -->
<svg version="1.1" id="Õ_xBA__x2264__x201E__x5F_1"
	 xmlns="http://www.w3.org/2000/svg" xmlns:xlink="http://www.w3.org/1999/xlink" x="0px" y="0px" viewBox="0 0 120 120"
	 style="enable-background:new 0 0 120 120;" xml:space="preserve">
<style type="text/css">
	.st0{fill:none;stroke:#2C282C;stroke-width:0.6;stroke-miterlimit:10;}
	.st1{fill:#2C282C;}
	.st2{opacity:0.35;}
	.st3{opacity:0.7;fill:#85EA2D;}
	.st4{opacity:0.8;fill:#38B832;}
	.st5{opacity:0.8;fill:#63DB2A;}
	.st6{fill:#93D500;}
	.st7{fill:#4D5A31;}
	.st8{fill:#6BA43A;}
	.st9{fill:#424143;}
</style>
<g>
	<g>
		<g>
			<polyline class="st0" points="81.75,95.856 99.139,85.029 98.557,49.761 			"/>
			<polyline class="st0" points="91.794,61.472 80.377,54.966 63.236,65.149 63.245,85.468 80.779,74.748 98.984,84.943 			"/>
		</g>
	</g>
	<g>
		<g>
			<line class="st0" x1="58.583" y1="65.166" x2="58.615" y2="98.339"/>
			<polyline class="st0" points="32.795,56.438 18.965,65.478 18.312,88.358 38.753,99.925 45.255,96.399 			"/>
			<polyline class="st0" points="72.149,97.266 38.927,76.815 39.378,53.943 53.885,63.099 			"/>
			<line class="st0" x1="38.927" y1="76.815" x2="18.486" y2="88.262"/>
		</g>
		<g>
		</g>
	</g>
	<g>
		<g>
			<polyline class="st0" points="42.281,27.84 59.518,18.075 77.77,28.65 77.408,48.9 59.353,59.463 42.027,48.72 41.757,38.222 			
				"/>
			<polyline class="st0" points="77.77,28.65 59.69,38.424 35.158,23.7 			"/>
			<line class="st0" x1="59.69" y1="38.424" x2="59.356" y2="59.286"/>
		</g>
	</g>
	<circle class="st1" cx="77.234" cy="28.799" r="2.816"/>
	<circle class="st1" cx="38.945" cy="77.159" r="2.816"/>
	<circle class="st1" cx="98.871" cy="85.08" r="2.816"/>
	<line class="st0" x1="80.779" y1="74.748" x2="80.377" y2="54.966"/>
</g>
</svg>
