<?xml version="1.0" encoding="utf-8"?>
<!-- Generator: Adobe Illustrator 23.0.1, SVG Export Plug-In . SVG Version: 6.00 Build 0)  -->
<svg version="1.1" id="Layer_1" xmlns="http://www.w3.org/2000/svg" xmlns:xlink="http://www.w3.org/1999/xlink" x="0px" y="0px"
	 viewBox="0 0 464.92 56.825" style="enable-background:new 0 0 464.92 56.825;" xml:space="preserve">
<style type="text/css">
	.st0{fill:#FFFFFF;}
	.st1{fill:#2C282C;}
	.st2{fill:#173647;}
	.st3{fill:#50E4EA;}
	.st4{fill:#FCDC00;}
	.st5{fill:#85EA2D;}
	.st6{fill:#F4CF14;}
	.st7{fill:none;}
	.st8{fill:#04AADB;}
	.st9{fill:#07CED6;}
	.st10{fill:#63DB2A;}
	.st11{fill:#FF730B;}
	.st12{fill:#17D1FC;}
	.st13{fill:#00AADB;}
	.st14{fill:#758491;}
</style>
<g>
	<path class="st2" d="M140.425,25.729c0,0-7.011-0.8-9.914-0.8c-4.207,0-6.36,1.503-6.36,4.457c0,3.205,1.803,3.955,7.661,5.558
		c7.211,2.002,9.814,3.906,9.814,9.764c0,7.511-4.706,10.765-11.466,10.765c-4.457,0-11.216-1.352-11.216-1.352l0.551-4.457
		c0,0,6.759,0.902,10.315,0.902c4.255,0,6.208-1.903,6.208-5.509c0-2.905-1.552-3.906-6.81-5.158
		c-7.411-1.902-10.615-4.156-10.615-10.114c0-6.911,4.557-9.764,11.417-9.764c4.356,0,10.866,1.201,10.866,1.201L140.425,25.729z"/>
	<path class="st2" d="M155.271,20.31h9.353l7.661,26.789l7.661-26.789h9.325v35h-5v-30h-0.514l-8.567,28h-5.809l-8.568-28h-0.541v30
		h-5V20.31z"/>
	<path class="st2" d="M275.271,20.31h26v5h-10v30h-6v-30h-10V20.31z"/>
	<path class="st2" d="M324.97,20.31c6.81,0,10.465,2.709,10.465,9.069c0,4.156-1.301,6.286-4.056,7.789
		c2.954,1.151,4.907,3.487,4.907,8.194c0,7.011-4.255,9.947-10.916,9.947h-13.1v-35H324.97z M317.271,25.31v10h7.599
		c3.406,0,4.907-1.794,4.907-5.151c0-3.304-1.702-4.849-5.107-4.849H317.271z M317.271,40.31v10h7.8
		c3.454,0,5.507-1.019,5.507-5.126c0-3.906-2.905-4.874-5.608-4.874H317.271z"/>
	<path class="st2" d="M350.271,20.31h21v5h-16v10h13v5h-13v10h16v5h-21V20.31z"/>
	<path class="st2" d="M391.629,20.31h11.066l8.512,35h-5.608l-2.533-10h-11.81l-2.532,10h-5.558L391.629,20.31z M392.368,40.31
		h9.622l-3.55-15h-2.504L392.368,40.31z"/>
	<path class="st2" d="M429.271,44.31v11h-6v-35h13.328c7.561,0,11.617,4.488,11.617,12.098c0,4.857-1.953,9.511-5.608,11.213
		l5.659,11.689h-6.109l-4.958-11H429.271z M436.599,25.31h-7.328v15h7.429c4.206,0,5.808-4.02,5.808-7.574
		C442.507,28.829,440.605,25.31,436.599,25.31z"/>
	<path class="st2" d="M210.244,20.31h11.066l8.512,35h-5.608l-2.533-10h-11.81l-2.532,10h-5.558L210.244,20.31z M210.982,40.31
		h9.622l-3.55-15h-2.504L210.982,40.31z"/>
	<path class="st2" d="M247.271,44.31v11h-5v-35h12.943c7.561,0,11.617,4.488,11.617,12.098c0,4.857-1.953,9.511-5.608,11.213
		l5.659,11.689h-6.109l-4.958-11H247.271z M255.214,25.31h-7.943v15h8.043c4.206,0,5.808-4.02,5.808-7.574
		C261.122,28.829,259.22,25.31,255.214,25.31z"/>
</g>
<path class="st11" d="M58.554,48.31H42.649l-2.821,9h21.546L58.554,48.31z M101.203,57.31L92.86,31.391l5.389-16.708L78.208,0.087
	L64.092,10.31H37.111L22.995,0.026L2.954,14.575l5.389,16.823L0,57.31h26.322l-2.045-6.541l26.326-19.246L76.926,50.83l-2.045,6.48
	H101.203z"/>
<g>
	<g>
		<rect x="454.917" y="50.353" class="st7" width="9.937" height="10.973"/>
		<path class="st2" d="M456.962,54.914h-0.7v-3.683h-1.26V50.63h3.22v0.601h-1.26V54.914z"/>
		<path class="st2" d="M461.029,54.914l-1.242-3.577h-0.023c0.033,0.531,0.05,1.029,0.05,1.494v2.083h-0.636V50.63h0.987
			l1.189,3.407h0.018l1.225-3.407h0.99v4.283h-0.674v-2.118c0-0.213,0.005-0.49,0.016-0.832s0.02-0.549,0.028-0.621h-0.023
			l-1.286,3.571H461.029z"/>
	</g>
</g>
</svg>
