<svg xmlns="http://www.w3.org/2000/svg" width="212.173" height="212.173" viewBox="0 0 212.173 212.173">
  <defs>
    <style>
      .a, .b, .e, .f, .g, .h, .j, .k {
        fill: none;
        stroke-miterlimit: 10;
      }

      .a, .b, .e, .g, .h, .k {
        stroke: #4a494d;
      }

      .a, .e, .f, .g, .h, .j, .k {
        stroke-linecap: round;
      }

      .a, .b, .e, .j {
        stroke-width: 0.75px;
      }

      .a, .b, .d {
        opacity: 0.4;
      }

      .c {
        fill: #4a494d;
      }

      .f, .j {
        stroke: #515050;
      }

      .g {
        stroke-width: 1.25px;
        stroke-dasharray: 0 4;
      }

      .h {
        stroke-width: 1.5px;
      }

      .i {
        fill: #f7f8f8;
      }

      .k {
        stroke-width: 2px;
      }
    </style>
  </defs>
  <title>SW</title>
  <path class="a" d="M63.873,129.355V26.556a7.831,7.831,0,0,1,7.808-7.808h66.788a7.831,7.831,0,0,1,7.807,7.808v113.3"/>
  <line class="b" x1="64.009" y1="38.283" x2="146.161" y2="38.283"/>
  <g>
    <path class="c" d="M73.981,32.563a.8.8,0,0,0,.264.669,1.273,1.273,0,0,0,.776.217v.634a2.091,2.091,0,0,1-1.329-.394,1.316,1.316,0,0,1-.47-1.081v-1.37a.764.764,0,0,0-.285-.671,1.43,1.43,0,0,0-.828-.2v-.638a1.407,1.407,0,0,0,.85-.217.769.769,0,0,0,.263-.642V27.486a1.312,1.312,0,0,1,.488-1.09,2.047,2.047,0,0,1,1.311-.389v.629q-1.039.027-1.04.9v1.334a1.071,1.071,0,0,1-1.008,1.149v.054a1.07,1.07,0,0,1,1.008,1.148Z"/>
    <path class="c" d="M80.869,32.617l-.823-2.1H77.4l-.813,2.1h-.778l2.613-6.637h.647l2.6,6.637Zm-1.062-2.794-.769-2.048q-.15-.389-.308-.954a8.654,8.654,0,0,1-.284.954l-.778,2.048Z"/>
    <path class="c" d="M87.228,27.933a1.85,1.85,0,0,1-.685,1.544,3.1,3.1,0,0,1-1.96.541h-.777v2.6h-.769v-6.61H84.75Q87.228,26.007,87.228,27.933Zm-3.422,1.424H84.5a2.565,2.565,0,0,0,1.479-.33,1.217,1.217,0,0,0,.457-1.058,1.138,1.138,0,0,0-.43-.976,2.242,2.242,0,0,0-1.338-.321h-.859Z"/>
    <path class="c" d="M89.075,32.617v-6.61h.768v6.61Z"/>
    <path class="c" d="M94.034,30.018a1.071,1.071,0,0,1-1.008-1.149V27.535q0-.872-1.026-.9v-.629a2,2,0,0,1,1.308.393,1.332,1.332,0,0,1,.478,1.086v1.383a.76.76,0,0,0,.266.644,1.441,1.441,0,0,0,.855.215v.638a1.448,1.448,0,0,0-.837.2.763.763,0,0,0-.284.671v1.37a1.328,1.328,0,0,1-.464,1.079,2.056,2.056,0,0,1-1.322.4v-.634a1.245,1.245,0,0,0,.764-.217.8.8,0,0,0,.262-.669V31.22a1.122,1.122,0,0,1,.249-.786,1.3,1.3,0,0,1,.759-.362Z"/>
  </g>
  <g>
    <line class="a" x1="95.574" y1="48.464" x2="130.356" y2="48.464"/>
    <line class="a" x1="128.423" y1="56.418" x2="95.639" y2="56.418"/>
    <line class="a" x1="92.676" y1="56.418" x2="83.422" y2="56.418"/>
    <line class="a" x1="111.236" y1="63.972" x2="91.723" y2="63.972"/>
    <line class="a" x1="93.264" y1="73.022" x2="120.736" y2="73.022"/>
    <line class="a" x1="115.601" y1="80.378" x2="82.844" y2="80.378"/>
    <line class="a" x1="77.194" y1="48.464" x2="92.493" y2="48.464"/>
    <line class="a" x1="95.574" y1="113.653" x2="130.917" y2="113.653"/>
    <line class="a" x1="128.073" y1="121.607" x2="86.849" y2="121.607"/>
    <line class="a" x1="77.194" y1="113.653" x2="92.493" y2="113.653"/>
    <line class="a" x1="77.138" y1="73.022" x2="90.199" y2="73.022"/>
    <g class="d">
      <line class="e" x1="95.418" y1="88.532" x2="121.042" y2="88.532"/>
      <line class="e" x1="130.36" y1="96.487" x2="95.225" y2="96.487"/>
      <line class="e" x1="92.419" y1="96.486" x2="85.292" y2="96.486"/>
      <line class="e" x1="110.979" y1="104.04" x2="93.61" y2="104.04"/>
      <line class="e" x1="85.059" y1="88.532" x2="92.237" y2="88.532"/>
    </g>
    <line class="a" x1="123.866" y1="73.022" x2="130.086" y2="73.022"/>
  </g>
  <path class="f" d="M204.453,38.287c.04-2.255-2.97-3.241-5.514-4.378a3.084,3.084,0,0,1-1.483-2.753l-.018-.037v-.6a9.927,9.927,0,0,0,3.929-1.3S199.7,27.6,199.7,23.68c0-3.157-2.158-5.219-4.576-5.262l-.336.011c-2.418.042-4.576,2.1-4.576,5.261,0,3.923-1.664,5.543-1.664,5.543a9.909,9.909,0,0,0,3.929,1.3v.6A3.083,3.083,0,0,1,191,33.882c-2.544,1.137-5.554,2.123-5.514,4.378"/>
  <path class="f" d="M207.106,111.776a3.946,3.946,0,0,0-.925-1.67c-1.311-1.3-5.6-2.461-6.154-2.753a2.256,2.256,0,0,1-1.425-1.829v-1.27a10.619,10.619,0,0,0,1.072-2.614,2.248,2.248,0,0,0,1.43-1.687c.417-1.568-.565-2.05-.565-2.05V94.664c0-1.483-.311-2.472-1.662-2.472a3.1,3.1,0,0,0-2.569-.989c-1.7,0-2.475.989-4.078.989-.709,0-.73,1.179-.729,2.45,0,1.333,0,3.261,0,3.261s-.982.482-.565,2.05a2.249,2.249,0,0,0,1.429,1.687,10.639,10.639,0,0,0,1.073,2.614v1.27c0,.964-1.447,1.626-1.447,1.626-3.856,1.391-5.446,2.2-6.137,2.966a4.017,4.017,0,0,0-.867,1.606"/>
  <path class="f" d="M206.459,74.015a3.826,3.826,0,0,0-.9-1.622c-1.273-1.26-5.437-2.391-5.976-2.673s-.779-.841-.779-1.777V66.71c1.309-.543.991-2.984.991-2.984.474-.118.92-1.061.955-1.84a1.417,1.417,0,0,0-.67-1.344l.493-2.8c0-1.44-.795-2.751-2.107-2.751a3.119,3.119,0,0,0-2.457-1.353c-1.654,0-2.087.036-3.148,1.062-.5.478-2.159,1.347-2.158,2.582a24.17,24.17,0,0,0,.53,3.715,1.384,1.384,0,0,0-.636,1.521c.106.849.41,1.3.884,1.415a5.222,5.222,0,0,0,1.309,2.772v1.233a2.205,2.205,0,0,1-1.011,1.579c-3.745,1.351-5.288,2.14-5.959,2.88a3.9,3.9,0,0,0-.842,1.56"/>
  <line class="g" x1="174.19" y1="68.773" x2="180.501" y2="68.773"/>
  <polyline class="h" points="157.041 69.595 160.402 72.957 167.83 65.529"/>
  <path class="g" d="M180.95,29.792h0a18.659,18.659,0,0,0-18.659,18.66v11.4"/>
  <path class="g" d="M180.95,107.353h0a18.659,18.659,0,0,1-18.659-18.659V83.748"/>
  <path class="g" d="M127.58,85.392a35.37,35.37,0,0,1,25.352-15.615h0"/>
  <g class="d">
    <path class="e" d="M45.026,133.712V106.039A6.294,6.294,0,0,1,51.3,99.763h7.581"/>
    <rect class="e" x="51.598" y="106.023" width="3.57" height="3.63" rx="0.826" ry="0.826"/>
    <rect class="e" x="51.598" y="114.611" width="3.57" height="3.63" rx="0.826" ry="0.826"/>
    <rect class="e" x="51.598" y="123.295" width="3.57" height="3.63" rx="0.826" ry="0.826"/>
    <g>
      <path class="e" d="M51.829,74.382A3.685,3.685,0,0,1,55.5,78.057V94.306"/>
      <path class="e" d="M14.747,158.237V78.057a3.685,3.685,0,0,1,3.674-3.675"/>
      <path class="e" d="M47.754,67.458a3.588,3.588,0,0,1,3.577,3.577v2.328"/>
      <path class="e" d="M19.163,73.363V71.035a3.587,3.587,0,0,1,3.576-3.577"/>
      <path class="e" d="M24.552,66.439V64.744a3.587,3.587,0,0,1,3.577-3.576H42.122A3.586,3.586,0,0,1,45.7,64.744v1.695"/>
      <line class="e" x1="35.586" y1="53.847" x2="35.586" y2="59.034"/>
      <g>
        <rect class="e" x="21.126" y="81.343" width="5.165" height="5.165" rx="0.814" ry="0.814"/>
        <rect class="e" x="32.528" y="81.343" width="5.165" height="5.165" rx="1.101" ry="1.101"/>
        <rect class="e" x="43.719" y="81.343" width="5.165" height="5.165" rx="0.814" ry="0.814"/>
        <rect class="e" x="21.126" y="91.673" width="5.165" height="5.165" rx="0.814" ry="0.814"/>
        <rect class="e" x="32.528" y="91.673" width="5.165" height="5.165" rx="1.101" ry="1.101"/>
        <rect class="e" x="43.719" y="91.673" width="5.165" height="5.165" rx="1.101" ry="1.101"/>
        <rect class="e" x="21.126" y="102.003" width="5.165" height="5.165" rx="1.101" ry="1.101"/>
        <rect class="e" x="32.528" y="102.003" width="5.165" height="5.165" rx="0.814" ry="0.814"/>
        <rect class="e" x="21.126" y="112.334" width="5.165" height="5.165" rx="0.814" ry="0.814"/>
        <rect class="e" x="32.528" y="112.334" width="5.165" height="5.165" rx="0.814" ry="0.814"/>
        <rect class="e" x="21.186" y="122.147" width="5.165" height="5.165" rx="1.101" ry="1.101"/>
        <rect class="e" x="32.588" y="122.147" width="5.165" height="5.165" rx="0.814" ry="0.814"/>
        <rect class="e" x="21.186" y="132.322" width="5.165" height="5.165" rx="1.101" ry="1.101"/>
        <rect class="e" x="32.588" y="132.322" width="5.165" height="5.165" rx="0.814" ry="0.814"/>
        <rect class="e" x="21.186" y="142.322" width="5.165" height="5.165" rx="1.101" ry="1.101"/>
        <rect class="e" x="32.588" y="142.322" width="5.165" height="5.165" rx="0.814" ry="0.814"/>
      </g>
    </g>
    <line class="e" x1="22.393" y1="74.382" x2="48.584" y2="74.382"/>
    <line class="e" x1="27.348" y1="67.584" x2="43.182" y2="67.584"/>
  </g>
  <g>
    <path class="c" d="M98.687,131.355a.983.983,0,0,1,.2-.669.728.728,0,0,1,.577-.228.776.776,0,0,1,.6.228.942.942,0,0,1,.215.669.927.927,0,0,1-.218.66.866.866,0,0,1-1.15.023A.9.9,0,0,1,98.687,131.355Z"/>
    <path class="c" d="M103.832,131.355a.983.983,0,0,1,.2-.669.728.728,0,0,1,.577-.228.776.776,0,0,1,.6.228.942.942,0,0,1,.215.669.927.927,0,0,1-.218.66.866.866,0,0,1-1.15.023A.9.9,0,0,1,103.832,131.355Z"/>
    <path class="c" d="M108.977,131.355a.978.978,0,0,1,.2-.669.728.728,0,0,1,.577-.228.776.776,0,0,1,.6.228.942.942,0,0,1,.215.669.927.927,0,0,1-.218.66.868.868,0,0,1-1.151.023A.905.905,0,0,1,108.977,131.355Z"/>
  </g>
  <g>
    <path class="f" d="M95.967,182.769a10.807,10.807,0,0,0-2.127-4.095c-1.648-1.819-5.439-3.755-14.634-7.073,0,0-3.451-1.578-3.451-3.877l-.029-3.2a25.408,25.408,0,0,0,2.556-6.233,5.366,5.366,0,0,0,3.409-4.023c.994-3.739-1.347-4.89-1.347-4.89v-7.722c0-3.537-.742-5.9-3.962-5.9-.855-1.432-3.4-2.357-6.128-2.357-4.063,0-5.9,2.357-9.724,2.357-1.69,0-1.741,2.811-1.738,5.843,0,3.177,0,7.775,0,7.775s-2.341,1.151-1.347,4.89a5.367,5.367,0,0,0,3.408,4.023,25.428,25.428,0,0,0,2.557,6.233v3.028c0,2.3-3.45,3.876-3.45,3.876-9.195,3.319-12.986,5.255-14.634,7.073a10.811,10.811,0,0,0-2.127,4.1"/>
    <g>
      <path class="f" d="M54.956,140.19a13.142,13.142,0,0,0-1.684-.1H51.733c-2.839,0-3.995.625-5.155,1.717-2.368,0-2.4,1.719-2.4,4.3v5.626A3.36,3.36,0,0,0,43,154.6a3.974,3.974,0,0,0,2.83,3.629,8.31,8.31,0,0,0,3.02,5.909v1.68c0,1.675-.062,2.16-2.263,2.947a73.038,73.038,0,0,0-9.478,3.853"/>
      <path class="f" d="M58.452,168.458c-1.1-.573-1.156-1.154-1.156-2.477v-2.206"/>
      <path class="f" d="M80.557,164.194c.716.169,2.5.512,3.333.612v1.175c0,1.41-.061,1.977-1.386,2.59"/>
      <path class="f" d="M102.306,171.9c-1.828-1.009-2.454-1.315-7.1-2.976-2.2-.787-2.264-1.272-2.264-2.947v-1.175a19.451,19.451,0,0,0,7.7-2.539s-3.26-3.175-3.26-10.86c0-6.184-4.228-10.224-8.965-10.307a9.458,9.458,0,0,0-4.983,1.222"/>
    </g>
  </g>
  <g>
    <circle class="i" cx="145.661" cy="167.139" r="20.616"/>
    <g class="d">
      <circle class="j" cx="145.661" cy="167.093" r="20.616"/>
    </g>
    <polyline class="k" points="136.535 168.966 142.478 174.91 155.612 161.776"/>
  </g>
</svg>
