<?xml version="1.0" encoding="utf-8"?>
<!-- Generator: Adobe Illustrator 24.1.2, SVG Export Plug-In . SVG Version: 6.00 Build 0)  -->
<svg version="1.1" id="Layer_1" xmlns="http://www.w3.org/2000/svg" xmlns:xlink="http://www.w3.org/1999/xlink" x="0px" y="0px"
	 viewBox="0 0 374 286" style="enable-background:new 0 0 374 286;" xml:space="preserve">
<style type="text/css">
	.st0{fill:none;stroke:#515150;stroke-width:0.5;stroke-linecap:round;stroke-miterlimit:10;}
	.st1{fill:none;stroke:#4B494B;stroke-width:0.5;stroke-linecap:round;stroke-miterlimit:10;}
	.st2{opacity:0.4;}
	.st3{fill:none;stroke:#4A494D;stroke-linecap:round;stroke-miterlimit:10;}
	.st4{fill:none;stroke:#4A494D;stroke-miterlimit:10;}
	.st5{opacity:0.4;fill:none;stroke:#4A494D;stroke-width:0.75;stroke-miterlimit:10;enable-background:new    ;}
	.st6{fill:none;stroke:#4A494A;stroke-width:0.5;stroke-linecap:round;stroke-miterlimit:10;}
	.st7{fill:none;stroke:#4A494A;stroke-width:0.75;stroke-linecap:round;stroke-miterlimit:10;}
	.st8{opacity:0.3;}
	.st9{fill:#173647;}
	.st10{fill:#85EA2D;}
</style>
<g>
	<path class="st0" d="M216.5,21.8c-0.5-0.1-0.9-0.1-1.4-0.1h-1.3c-2.3,0-3.3,0.5-4.3,1.4c-2,0-2,1.4-2,3.5v4.6
		c-0.7,0.6-1.1,1.5-1,2.4c0.1,1.4,1,2.6,2.3,3c0.1,1.9,1,3.7,2.5,4.9V43c0,1.4-0.1,1.8-1.9,2.4c-2.7,0.9-5.3,1.9-7.8,3.2"/>
	<path class="st0" d="M219.4,45.2c-0.9-0.5-1-1-1-2v-1.8"/>
	<path class="st0" d="M237.6,41.7c0.6,0.1,2.1,0.4,2.8,0.5v1c0,1.2-0.1,1.6-1.1,2.1"/>
	<path class="st0" d="M255.6,48c-1.9-1-3.8-1.8-5.9-2.5c-1.8-0.7-1.9-1.1-1.9-2.4v-1c2.2-0.2,4.4-1,6.4-2.1c0,0-2.7-2.6-2.7-9
		c0-5.1-3.5-8.4-7.4-8.5c-1.4,0-2.9,0.3-4.1,1"/>
</g>
<path class="st1" d="M129.2,60.4c2.6-1.4,5.4-2.6,8.3-3.6c2-0.7,2-1.1,2-2.7v-2.1c-2.4-0.3-4.8-1-6.9-2.3c0,0,2.9-2.9,2.9-9.8
	c0-5.6,3.8-9.2,8.1-9.3l0.6,0c4.3,0.1,8.1,3.7,8.1,9.3c0,6.9,2.9,9.8,2.9,9.8c-2.1,1.2-4.5,2-6.9,2.3v2.1c0,1.5,0.4,2,1.4,2.4
	c3,1.1,6,2.4,8.9,3.8"/>
<g class="st2">
	<polyline class="st3" points="195,176.5 195,232 135.7,209.7 135.7,180.4 	"/>
	<polygon class="st4" points="177.7,121.9 117.5,140.8 135.7,154.7 195,134.8 	"/>
	<polygon class="st4" points="176.8,188.6 116.4,166.1 135.6,154.7 194.9,176.1 	"/>
	<polyline class="st3" points="195,232 254.4,209.7 254.4,180.4 	"/>
	<polygon class="st4" points="212.9,188.6 273.4,166.1 254.2,154.7 194.8,176.1 	"/>
	<polygon class="st4" points="212,121.8 272.2,140.7 254,154.6 194.8,134.7 	"/>
</g>
<circle class="st5" cx="292.6" cy="83.2" r="19.1"/>
<circle class="st5" cx="144.2" cy="44.8" r="24.7"/>
<circle class="st5" cx="228.2" cy="36.6" r="33.6"/>
<g>
	<circle class="st5" cx="94.7" cy="89.5" r="15"/>
	<path class="st6" d="M104.4,97.4c-0.1-0.5-0.4-1-0.8-1.5c-0.6-0.7-2-1.4-5.3-2.6c0,0-1.3-0.3-1.2-1.4c0-0.1,0-1.1,0-1.1
		c0.4-0.7,0.7-1.5,0.9-2.3c0.6-0.2,1.1-0.8,1.2-1.5c0.4-1.4-0.5-1.8-0.5-1.8v-2.8c0-1.3-0.3-2.1-1.4-2.1c-0.6-0.6-1.4-0.9-2.2-0.9
		c-1.5,0-2.1,0.9-3.5,0.9c-0.6,0-0.6,1-0.6,2.1c0,1.1,0,2.8,0,2.8s-0.8,0.4-0.5,1.8c0.1,0.7,0.6,1.2,1.2,1.5
		c0.2,0.8,0.5,1.5,0.9,2.3v1.1c0,0.8-1.2,1.4-1.2,1.4c-3.3,1.2-4.7,1.9-5.3,2.6c-0.4,0.4-0.6,0.9-0.8,1.5"/>
</g>
<path class="st0" d="M250.4,57c-0.3-1.2-0.9-2.4-1.8-3.4c-1.4-1.5-4.5-3.1-12.1-5.8c0,0-2.9-1.3-2.9-3.2l0-2.6
	c0.9-1.6,1.6-3.3,2.1-5.1c1.5-0.5,2.5-1.8,2.8-3.3c0.8-3.1-1.1-4-1.1-4V23c0-2.9-0.6-4.9-3.3-4.9c-0.7-1.2-2.8-1.9-5.1-1.9
	c-3.4,0-4.9,1.9-8,1.9c-1.4,0-1.4,2.3-1.4,4.8c0,2.6,0,6.4,0,6.4s-1.9,1-1.1,4c0.3,1.5,1.4,2.8,2.8,3.3c0.5,1.8,1.2,3.5,2.1,5.1v2.5
	c0,1.9-2.9,3.2-2.9,3.2c-7.6,2.7-10.7,4.3-12.1,5.8c-0.8,1-1.4,2.1-1.8,3.4"/>
<path class="st0" d="M280.2,93.8c0.2-0.7,0.5-1.4,1-1.9c0.8-0.8,2.5-1.7,6.8-3.3c0,0,1.6-0.7,1.6-1.8l0-1.5
	c-0.5-0.9-0.9-1.9-1.2-2.9c-0.8-0.3-1.4-1-1.6-1.9c-0.5-1.7,0.6-2.3,0.6-2.3v-3.6c0-1.6,0.3-2.7,1.8-2.7c0.7-0.8,1.8-1.2,2.9-1.1
	c1.9,0,2.7,1.1,4.5,1.1c0.8,0,0.8,1.3,0.8,2.7c0,1.5,0,3.6,0,3.6s1.1,0.5,0.6,2.3c-0.2,0.9-0.8,1.6-1.6,1.9c-0.3,1-0.7,2-1.2,2.9
	v1.4c0,1.1,1.6,1.8,1.6,1.8c4.3,1.5,6,2.4,6.8,3.3c0.5,0.6,0.8,1.2,1,1.9"/>
<path class="st7" d="M100.8,106.5c0,7,8.3,12.6,23.3,12.6H140c15.6,0,28.3,12.7,28.3,28.3V160"/>
<path class="st7" d="M287,106.1v0.5c0,7-5.7,12.6-12.6,12.6l0,0H248c-15.6,0-28.3,12.7-28.3,28.3v13.5"/>
<path class="st7" d="M189.2,147.3V125c0-11.9-9.2-21.8-21.6-25.9s-22.4-10-22.4-22.4v-1.6"/>
<path class="st7" d="M204.5,114.8c0-10.8,5-17.8,14.8-21.1c4.8-1.6,15-3.2,15-16.8"/>
<polyline class="st7" points="184.4,143.2 189.1,147.7 193.8,142.8 "/>
<polyline class="st7" points="163.7,156.1 168.4,160.6 173,155.7 "/>
<polyline class="st7" points="215.2,156.9 219.9,161.4 224.5,156.6 "/>
<polyline class="st6" points="199.9,110.8 204.6,115.3 209.2,110.4 "/>
<g class="st8">
	<line class="st4" x1="69.2" y1="153.8" x2="52.9" y2="153.7"/>
	<line class="st4" x1="61.1" y1="145.6" x2="61" y2="161.9"/>
</g>
<g class="st8">
	<line class="st4" x1="371.2" y1="106.5" x2="359.7" y2="106.4"/>
	<line class="st4" x1="365.5" y1="100.7" x2="365.4" y2="112.2"/>
</g>
<g class="st8">
	<line class="st4" x1="14.3" y1="80.4" x2="2.8" y2="80.3"/>
	<line class="st4" x1="8.6" y1="74.6" x2="8.5" y2="86.1"/>
</g>
<g>
	<g>
		<g>
			<path class="st9" d="M175.9,270.5c0,1.3-0.5,2.3-1.4,3c-0.9,0.7-2.2,1.1-3.8,1.1c-1.7,0-3.1-0.2-4-0.7v-1.6
				c0.6,0.3,1.2,0.5,2,0.6c0.7,0.1,1.4,0.2,2.1,0.2c1.1,0,2-0.2,2.5-0.6c0.6-0.4,0.9-1,0.9-1.8c0-0.5-0.1-0.9-0.3-1.2
				c-0.2-0.3-0.5-0.6-1-0.9c-0.5-0.3-1.2-0.6-2.2-0.9c-1.4-0.5-2.3-1.1-2.9-1.7c-0.6-0.7-0.9-1.5-0.9-2.6c0-1.1,0.4-2,1.3-2.7
				c0.8-0.7,2-1,3.3-1c1.4,0,2.8,0.3,4,0.8l-0.5,1.5c-1.2-0.5-2.4-0.8-3.5-0.8c-0.9,0-1.6,0.2-2.1,0.6c-0.5,0.4-0.8,0.9-0.8,1.6
				c0,0.5,0.1,0.9,0.3,1.2c0.2,0.3,0.5,0.6,0.9,0.9c0.4,0.3,1.1,0.6,2,0.9c1.5,0.5,2.6,1.1,3.2,1.8
				C175.6,268.7,175.9,269.5,175.9,270.5z"/>
			<path class="st9" d="M186.9,274.4l-2-6.4c-0.1-0.4-0.4-1.3-0.7-2.7h-0.1c-0.3,1.2-0.5,2.1-0.7,2.7l-2.1,6.4h-1.9l-3-10.9h1.7
				c0.7,2.7,1.2,4.8,1.6,6.3s0.6,2.4,0.6,2.9h0.1c0.1-0.4,0.2-0.9,0.4-1.5c0.2-0.6,0.3-1.1,0.4-1.4l2-6.3h1.8l2,6.3
				c0.4,1.1,0.6,2.1,0.8,2.9h0.1c0-0.2,0.1-0.6,0.2-1.1c0.1-0.5,0.8-3.2,2.1-8h1.7l-3,10.9H186.9z"/>
			<path class="st9" d="M200.1,274.4l-0.3-1.6h-0.1c-0.5,0.7-1.1,1.1-1.6,1.4c-0.5,0.2-1.2,0.4-2,0.4c-1.1,0-1.9-0.3-2.5-0.8
				c-0.6-0.6-0.9-1.4-0.9-2.4c0-2.2,1.8-3.4,5.3-3.5l1.9-0.1v-0.7c0-0.9-0.2-1.5-0.6-1.9c-0.4-0.4-1-0.6-1.8-0.6
				c-0.9,0-1.9,0.3-3.1,0.8l-0.5-1.3c0.5-0.3,1.1-0.5,1.8-0.7c0.6-0.2,1.3-0.2,1.9-0.2c1.3,0,2.3,0.3,2.9,0.9s0.9,1.5,0.9,2.8v7.4
				H200.1z M196.3,273.2c1,0,1.8-0.3,2.4-0.8c0.6-0.6,0.9-1.4,0.9-2.4v-1l-1.7,0.1c-1.3,0-2.3,0.3-2.8,0.6c-0.6,0.4-0.9,0.9-0.9,1.7
				c0,0.6,0.2,1.1,0.5,1.4C195.2,273.1,195.7,273.2,196.3,273.2z"/>
			<path class="st9" d="M213.1,263.5v1l-2,0.2c0.2,0.2,0.4,0.5,0.5,0.9c0.1,0.4,0.2,0.8,0.2,1.3c0,1.1-0.4,1.9-1.1,2.6
				c-0.7,0.6-1.7,1-3,1c-0.3,0-0.6,0-0.9-0.1c-0.7,0.4-1.1,0.8-1.1,1.4c0,0.3,0.1,0.5,0.4,0.7c0.2,0.1,0.7,0.2,1.3,0.2h1.9
				c1.2,0,2.1,0.2,2.7,0.7c0.6,0.5,1,1.2,1,2.2c0,1.2-0.5,2.1-1.5,2.8c-1,0.6-2.4,1-4.2,1c-1.4,0-2.5-0.3-3.3-0.8
				c-0.8-0.5-1.2-1.3-1.2-2.2c0-0.7,0.2-1.2,0.6-1.7c0.4-0.5,1-0.8,1.8-1c-0.3-0.1-0.5-0.3-0.7-0.6c-0.2-0.3-0.3-0.6-0.3-0.9
				c0-0.4,0.1-0.7,0.3-1c0.2-0.3,0.5-0.6,1-0.9c-0.6-0.2-1-0.6-1.4-1.2c-0.4-0.6-0.5-1.2-0.5-1.9c0-1.2,0.4-2.1,1.1-2.8
				c0.7-0.6,1.7-1,3-1c0.6,0,1.1,0.1,1.5,0.2H213.1z M204.4,276.2c0,0.6,0.2,1,0.7,1.3c0.5,0.3,1.2,0.5,2.1,0.5
				c1.4,0,2.4-0.2,3.1-0.6c0.7-0.4,1-1,1-1.7c0-0.6-0.2-1-0.5-1.2c-0.4-0.2-1.1-0.3-2.1-0.3h-2c-0.8,0-1.3,0.2-1.8,0.5
				S204.4,275.5,204.4,276.2z M205.3,267c0,0.8,0.2,1.3,0.6,1.7c0.4,0.4,1,0.6,1.8,0.6c1.6,0,2.4-0.8,2.4-2.3c0-1.6-0.8-2.5-2.4-2.5
				c-0.8,0-1.4,0.2-1.8,0.6S205.3,266.1,205.3,267z"/>
			<path class="st9" d="M224.6,263.5v1l-2,0.2c0.2,0.2,0.4,0.5,0.5,0.9c0.1,0.4,0.2,0.8,0.2,1.3c0,1.1-0.4,1.9-1.1,2.6
				c-0.7,0.6-1.7,1-3,1c-0.3,0-0.6,0-0.9-0.1c-0.7,0.4-1.1,0.8-1.1,1.4c0,0.3,0.1,0.5,0.4,0.7c0.2,0.1,0.7,0.2,1.3,0.2h1.9
				c1.2,0,2.1,0.2,2.7,0.7c0.6,0.5,1,1.2,1,2.2c0,1.2-0.5,2.1-1.5,2.8c-1,0.6-2.4,1-4.2,1c-1.4,0-2.5-0.3-3.3-0.8
				c-0.8-0.5-1.2-1.3-1.2-2.2c0-0.7,0.2-1.2,0.6-1.7c0.4-0.5,1-0.8,1.8-1c-0.3-0.1-0.5-0.3-0.7-0.6c-0.2-0.3-0.3-0.6-0.3-0.9
				c0-0.4,0.1-0.7,0.3-1c0.2-0.3,0.5-0.6,1-0.9c-0.6-0.2-1-0.6-1.4-1.2c-0.4-0.6-0.5-1.2-0.5-1.9c0-1.2,0.4-2.1,1.1-2.8
				c0.7-0.6,1.7-1,3-1c0.6,0,1.1,0.1,1.5,0.2H224.6z M215.9,276.2c0,0.6,0.2,1,0.7,1.3c0.5,0.3,1.2,0.5,2.1,0.5
				c1.4,0,2.4-0.2,3.1-0.6c0.7-0.4,1-1,1-1.7c0-0.6-0.2-1-0.5-1.2c-0.4-0.2-1.1-0.3-2.1-0.3h-2c-0.8,0-1.3,0.2-1.8,0.5
				C216.1,275,215.9,275.5,215.9,276.2z M216.8,267c0,0.8,0.2,1.3,0.6,1.7c0.4,0.4,1,0.6,1.8,0.6c1.6,0,2.4-0.8,2.4-2.3
				c0-1.6-0.8-2.5-2.4-2.5c-0.8,0-1.4,0.2-1.8,0.6C217,265.5,216.8,266.1,216.8,267z"/>
			<path class="st9" d="M230.7,274.6c-1.6,0-2.9-0.5-3.8-1.5c-0.9-1-1.4-2.3-1.4-4.1c0-1.8,0.4-3.2,1.3-4.2c0.9-1,2-1.6,3.5-1.6
				c1.4,0,2.4,0.4,3.2,1.3c0.8,0.9,1.2,2.1,1.2,3.6v1h-7.5c0,1.3,0.4,2.3,1,2.9c0.6,0.7,1.5,1,2.6,1c1.2,0,2.3-0.2,3.5-0.7v1.5
				c-0.6,0.3-1.1,0.4-1.7,0.5C232,274.5,231.4,274.6,230.7,274.6z M230.2,264.7c-0.9,0-1.6,0.3-2.1,0.9c-0.5,0.6-0.8,1.4-0.9,2.4
				h5.7c0-1-0.2-1.8-0.7-2.4C231.7,264.9,231.1,264.7,230.2,264.7z"/>
			<path class="st9" d="M242,263.3c0.5,0,0.9,0,1.3,0.1l-0.2,1.5c-0.5-0.1-0.8-0.1-1.2-0.1c-0.9,0-1.6,0.4-2.3,1.1s-0.9,1.6-0.9,2.7
				v5.9H237v-10.9h1.4l0.2,2h0.1c0.4-0.7,0.9-1.3,1.5-1.6C240.7,263.5,241.3,263.3,242,263.3z"/>
		</g>
	</g>
	<g>
		<g>
			<path class="st10" d="M145.7,282.2c-7.9,0-14.3-6.4-14.3-14.3c0-7.9,6.4-14.3,14.3-14.3S160,260.1,160,268
				C160,275.8,153.6,282.2,145.7,282.2z"/>
			<path class="st9" d="M145.7,254.4c7.5,0,13.6,6.1,13.6,13.6c0,7.5-6.1,13.6-13.6,13.6c-7.5,0-13.6-6.1-13.6-13.6
				C132.1,260.5,138.2,254.4,145.7,254.4 M145.7,253c-8.3,0-15,6.7-15,15c0,8.3,6.7,15,15,15c8.3,0,15-6.7,15-15
				C160.7,259.7,154,253,145.7,253L145.7,253z"/>
		</g>
		<path class="st9" d="M140.2,263.1c0,0.5,0,1,0,1.6c0,0.5-0.1,1-0.2,1.5c-0.1,0.7-0.6,1.3-1.2,1.7c1.2,0.8,1.4,2,1.4,3.3
			c0,0.7,0,1.4,0.1,2c0.1,0.5,0.3,0.7,0.8,0.7c0.2,0,0.4,0,0.7,0v1.6c-1.6,0.3-2.9-0.2-3.2-1.5c-0.1-0.5-0.2-1-0.2-1.5
			c0-0.5,0-1.1,0-1.6c-0.1-1.5-0.3-2-1.7-2V267c0.1,0,0.2,0,0.3-0.1c0.8,0,1.1-0.3,1.3-1c0.1-0.4,0.1-0.9,0.1-1.3
			c0.1-0.8,0-1.7,0.2-2.5c0.2-1.2,0.9-1.8,2.2-1.8c0.3,0,0.7,0,1.1,0v1.6c-0.2,0-0.3,0-0.5,0C140.3,261.9,140.2,262.3,140.2,263.1z
			 M142.1,266.9L142.1,266.9c-0.6,0-1.1,0.4-1.1,1c0,0.6,0.4,1.1,1,1.1h0.1c0.6,0,1.1-0.4,1.1-1V268
			C143.1,267.4,142.7,266.9,142.1,266.9z M145.7,266.9c-0.6,0-1,0.4-1,1c0,0,0,0.1,0,0.1c0,0.6,0.4,1,1.1,1c0.6,0,1-0.4,1-1.1
			C146.8,267.3,146.3,266.9,145.7,266.9z M149.4,266.9c-0.6,0-1.1,0.5-1.1,1c0,0.6,0.5,1.1,1.1,1.1h0c0.5,0.1,1.1-0.4,1.1-1
			C150.5,267.4,150,266.9,149.4,266.9z M154.5,267c-0.7,0-1-0.3-1.2-0.9c-0.1-0.4-0.2-0.8-0.2-1.2c0-0.8,0-1.6-0.1-2.3
			c-0.1-1.8-1.4-2.5-3.4-2.2v1.6c0.3,0,0.5,0,0.8,0c0.4,0,0.7,0.2,0.8,0.6c0,0.4,0,0.8,0.1,1.3c0.1,0.8,0.1,1.7,0.3,2.5
			c0.1,0.7,0.6,1.2,1.2,1.6c-1,0.7-1.3,1.7-1.4,2.8c0,0.8,0,1.5-0.1,2.3c0,0.7-0.3,0.9-1,0.9c-0.2,0-0.4,0-0.6,0v1.6
			c0.4,0,0.8,0,1.2,0c1.2-0.1,1.9-0.6,2.1-1.8c0.1-0.6,0.2-1.3,0.2-1.9c0-0.6,0-1.2,0.1-1.7c0.1-0.9,0.5-1.3,1.4-1.3
			c0.1,0,0.2,0,0.2-0.1V267C154.7,267,154.6,267,154.5,267z"/>
	</g>
</g>
</svg>
