<svg xmlns="http://www.w3.org/2000/svg" width="212.173" height="212.173" viewBox="0 0 212.173 212.173">
  <defs>
    <style>
      .a, .c, .e, .f, .g, .h, .k, .l, .m {
        fill: none;
      }

      .a, .c, .e, .f, .g, .h, .i, .l, .m {
        stroke: #4a494d;
      }

      .a, .c, .e, .f, .i, .k, .l, .m {
        stroke-linecap: round;
      }

      .a, .c, .e, .f, .g, .h, .i, .k, .l, .m {
        stroke-miterlimit: 10;
      }

      .a {
        stroke-width: 1.5px;
        stroke-dasharray: 0 4;
        opacity: 0.5;
      }

      .b, .i, .m {
        opacity: 0.4;
      }

      .c, .h, .k, .m {
        stroke-width: 0.75px;
      }

      .d {
        fill: #4a494d;
      }

      .e {
        stroke-width: 1.25px;
      }

      .i {
        fill: #fff;
      }

      .j {
        fill: #f7f8f8;
      }

      .k {
        stroke: #515050;
      }

      .l {
        stroke-width: 2px;
      }
    </style>
  </defs>
  <title>SW</title>
  <g>
    <g>
      <g>
        <path class="a" d="M59.4,93.189v-23.2A6,6,0,0,1,65.387,64h52.007a6,6,0,0,1,5.985,5.984l-.035,38.727a5.984,5.984,0,0,1-5.984,5.978h-22"/>
        <line class="a" x1="62.466" y1="80.824" x2="120.816" y2="80.824"/>
      </g>
      <g class="b">
        <g>
          <line class="c" x1="76.918" y1="85.704" x2="87.468" y2="85.704"/>
          <line class="c" x1="90.092" y1="85.704" x2="104.062" y2="85.704"/>
          <line class="c" x1="109.547" y1="90.496" x2="85.864" y2="90.496"/>
          <line class="c" x1="83.24" y1="90.496" x2="75.367" y2="90.496"/>
          <line class="c" x1="100.072" y1="95.279" x2="78.068" y2="95.279"/>
          <line class="c" x1="94.609" y1="101.573" x2="103.812" y2="101.573"/>
          <line class="c" x1="98.077" y1="106.481" x2="95.36" y2="106.481"/>
        </g>
      </g>
      <g>
        <line class="c" x1="69.828" y1="85.704" x2="74.178" y2="85.704"/>
        <g>
          <path class="d" d="M70.3,75.215l-1.967-5.141H68.3q.056.61.056,1.452v3.689h-.623v-5.8h1.015L70.588,74.2h.031l1.853-4.783h1.007v5.8h-.674V71.478q0-.642.056-1.4h-.032l-1.984,5.133Z"/>
          <path class="d" d="M79.129,73.037a2.393,2.393,0,0,1-.536,1.66,1.884,1.884,0,0,1-1.479.6,1.961,1.961,0,0,1-1.035-.273,1.808,1.808,0,0,1-.7-.786,2.735,2.735,0,0,1-.246-1.2,2.4,2.4,0,0,1,.531-1.656,1.88,1.88,0,0,1,1.476-.593,1.84,1.84,0,0,1,1.45.607A2.388,2.388,0,0,1,79.129,73.037Zm-3.312,0a2.06,2.06,0,0,0,.333,1.269,1.322,1.322,0,0,0,1.962,0,2.054,2.054,0,0,0,.335-1.271,2.023,2.023,0,0,0-.335-1.259,1.18,1.18,0,0,0-.99-.431,1.16,1.16,0,0,0-.976.425A2.046,2.046,0,0,0,75.817,73.037Z"/>
          <path class="d" d="M82.427,75.294a1.854,1.854,0,0,1-1.462-.581,2.39,2.39,0,0,1-.518-1.644,2.466,2.466,0,0,1,.526-1.686,1.9,1.9,0,0,1,1.5-.595,2.972,2.972,0,0,1,.627.068,2.062,2.062,0,0,1,.492.158l-.2.56a2.986,2.986,0,0,0-.476-.145,2.089,2.089,0,0,0-.456-.058q-1.326,0-1.325,1.69a2.018,2.018,0,0,0,.323,1.23,1.127,1.127,0,0,0,.958.428,2.933,2.933,0,0,0,1.115-.234v.583A2.375,2.375,0,0,1,82.427,75.294Z"/>
          <path class="d" d="M85.613,72.989a7.863,7.863,0,0,1,.52-.634l1.4-1.487h.782L86.557,72.72l1.885,2.5h-.8L86.109,73.16l-.5.428v1.627h-.65V69.043h.65v3.272q0,.219-.031.674Z"/>
          <path class="d" d="M93.335,75.167a.7.7,0,0,0,.233.587,1.117,1.117,0,0,0,.68.191V76.5a1.824,1.824,0,0,1-1.166-.345,1.154,1.154,0,0,1-.413-.948v-1.2a.67.67,0,0,0-.25-.589,1.247,1.247,0,0,0-.726-.177V72.68a1.241,1.241,0,0,0,.746-.19.677.677,0,0,0,.23-.563V70.713a1.153,1.153,0,0,1,.429-.956,1.788,1.788,0,0,1,1.15-.341v.551q-.912.024-.913.79v1.17a.938.938,0,0,1-.884,1.007v.048a.938.938,0,0,1,.884,1.007Z"/>
          <path class="d" d="M99.784,75.215l-.721-1.845H96.738l-.714,1.845h-.682l2.293-5.823H98.2l2.28,5.823Zm-.932-2.451-.674-1.8q-.131-.342-.27-.837a7.406,7.406,0,0,1-.25.837l-.682,1.8Z"/>
          <path class="d" d="M105.363,71.106a1.625,1.625,0,0,1-.6,1.354,2.724,2.724,0,0,1-1.72.474h-.682v2.281h-.674v-5.8h1.5Q105.363,69.416,105.363,71.106Zm-3,1.249h.607a2.256,2.256,0,0,0,1.3-.29,1.066,1.066,0,0,0,.4-.928,1,1,0,0,0-.377-.857A1.978,1.978,0,0,0,103.113,70h-.753Z"/>
          <path class="d" d="M106.982,75.215v-5.8h.675v5.8Z"/>
          <path class="d" d="M111.333,72.934a.938.938,0,0,1-.884-1.007v-1.17q0-.767-.9-.79v-.551a1.751,1.751,0,0,1,1.148.345,1.167,1.167,0,0,1,.419.952v1.214a.67.67,0,0,0,.234.565,1.268,1.268,0,0,0,.749.188v.559a1.263,1.263,0,0,0-.733.177.67.67,0,0,0-.25.589v1.2a1.164,1.164,0,0,1-.407.946,1.794,1.794,0,0,1-1.16.347v-.555a1.093,1.093,0,0,0,.67-.191.7.7,0,0,0,.231-.587V73.989a.99.99,0,0,1,.217-.69,1.147,1.147,0,0,1,.667-.317Z"/>
        </g>
      </g>
    </g>
    <path class="a" d="M176.974,70.76a14.506,14.506,0,0,1-11.544,5.7c-1.182,0-34.57.3-34.57.3"/>
    <path class="a" d="M90.36,54.855c1.5-9.5,10.215-13.839,17.384-13.839a12.986,12.986,0,0,1,7.449,1.839c2.634-9.769,12.8-15.166,21.834-15.166,11.808,0,22,11.5,21.647,23.309a13.214,13.214,0,0,1,7.407-2.257,13.254,13.254,0,0,1,12.946,9.114"/>
    <polyline class="e" points="143.878 64.037 145.789 65.949 150.013 61.725"/>
    <polyline class="e" points="143.878 83.962 145.789 85.873 150.013 81.649"/>
    <polyline class="e" points="143.878 105.214 145.789 107.125 150.013 102.901"/>
    <g>
      <path class="d" d="M161.59,63.9a3.1,3.1,0,0,1-.825,2.324,3.267,3.267,0,0,1-2.375.8h-1.7V60.885h1.882A2.757,2.757,0,0,1,161.59,63.9Zm-.756.025a2.468,2.468,0,0,0-.6-1.809,2.407,2.407,0,0,0-1.79-.609H157.4v4.9h.87a2.639,2.639,0,0,0,1.918-.628A2.482,2.482,0,0,0,160.834,63.921Z"/>
      <path class="d" d="M165.227,67.108a2.111,2.111,0,0,1-1.61-.622,2.4,2.4,0,0,1-.59-1.725,2.671,2.671,0,0,1,.548-1.768,1.822,1.822,0,0,1,1.472-.655,1.736,1.736,0,0,1,1.369.569,2.182,2.182,0,0,1,.5,1.5v.441h-3.17a1.819,1.819,0,0,0,.409,1.23,1.415,1.415,0,0,0,1.094.42,3.69,3.69,0,0,0,1.469-.311v.622a3.688,3.688,0,0,1-.7.229A3.948,3.948,0,0,1,165.227,67.108Zm-.188-4.186a1.136,1.136,0,0,0-.884.361,1.669,1.669,0,0,0-.389,1h2.406a1.529,1.529,0,0,0-.294-1.009A1.034,1.034,0,0,0,165.039,62.922Z"/>
      <path class="d" d="M169.546,67.024l-1.747-4.6h.747l.991,2.729a12.887,12.887,0,0,1,.395,1.243h.033a9.507,9.507,0,0,1,.292-.922q.246-.7,1.1-3.05h.748l-1.747,4.6Z"/>
      <path class="d" d="M175.22,67.108a2.114,2.114,0,0,1-1.611-.622,2.4,2.4,0,0,1-.59-1.725,2.671,2.671,0,0,1,.548-1.768,1.823,1.823,0,0,1,1.472-.655,1.736,1.736,0,0,1,1.369.569,2.182,2.182,0,0,1,.5,1.5v.441h-3.17a1.824,1.824,0,0,0,.409,1.23,1.417,1.417,0,0,0,1.094.42,3.7,3.7,0,0,0,1.47-.311v.622a3.72,3.72,0,0,1-.7.229A3.937,3.937,0,0,1,175.22,67.108Zm-.189-4.186a1.137,1.137,0,0,0-.884.361,1.662,1.662,0,0,0-.388,1h2.405a1.529,1.529,0,0,0-.294-1.009A1.031,1.031,0,0,0,175.031,62.922Z"/>
      <path class="d" d="M179.227,67.024h-.7V60.491h.7Z"/>
      <path class="d" d="M185.107,64.719a2.537,2.537,0,0,1-.567,1.757,1.993,1.993,0,0,1-1.566.632,2.077,2.077,0,0,1-1.1-.29,1.914,1.914,0,0,1-.739-.831,2.906,2.906,0,0,1-.26-1.268,2.532,2.532,0,0,1,.563-1.753A1.987,1.987,0,0,1,183,62.338a1.944,1.944,0,0,1,1.534.643A2.527,2.527,0,0,1,185.107,64.719Zm-3.506,0a2.181,2.181,0,0,0,.353,1.343,1.4,1.4,0,0,0,2.076,0,2.171,2.171,0,0,0,.355-1.346,2.133,2.133,0,0,0-.355-1.333,1.246,1.246,0,0,0-1.048-.456,1.224,1.224,0,0,0-1.032.45A2.156,2.156,0,0,0,181.6,64.719Z"/>
      <path class="d" d="M188.9,67.108a2,2,0,0,1-.821-.166,1.547,1.547,0,0,1-.623-.51h-.05a6.3,6.3,0,0,1,.05.764V69.09h-.7V62.422h.567l.1.63h.034a1.616,1.616,0,0,1,.625-.546,1.9,1.9,0,0,1,.819-.168,1.7,1.7,0,0,1,1.413.626,3.329,3.329,0,0,1-.008,3.516A1.7,1.7,0,0,1,188.9,67.108Zm-.1-4.178a1.234,1.234,0,0,0-1.021.391,2.01,2.01,0,0,0-.323,1.243v.155a2.3,2.3,0,0,0,.323,1.387,1.229,1.229,0,0,0,1.037.418,1.078,1.078,0,0,0,.934-.482,2.286,2.286,0,0,0,.339-1.331,2.2,2.2,0,0,0-.339-1.321A1.109,1.109,0,0,0,188.8,62.93Z"/>
    </g>
    <g>
      <path class="d" d="M156.689,87.207V81.069h.714v6.138Z"/>
      <path class="d" d="M160.9,86.716a2.306,2.306,0,0,0,.357-.027,2.171,2.171,0,0,0,.273-.057v.534a1.294,1.294,0,0,1-.334.09,2.606,2.606,0,0,1-.4.036q-1.335,0-1.335-1.407V83.147H158.8v-.336l.659-.289.294-.983h.4v1.067h1.335v.541h-1.335v2.708a.931.931,0,0,0,.2.639A.686.686,0,0,0,160.9,86.716Z"/>
      <path class="d" d="M164.822,87.292a2.115,2.115,0,0,1-1.61-.622,2.4,2.4,0,0,1-.59-1.726,2.667,2.667,0,0,1,.548-1.768,1.819,1.819,0,0,1,1.471-.654,1.733,1.733,0,0,1,1.369.569,2.178,2.178,0,0,1,.5,1.5v.44h-3.17a1.82,1.82,0,0,0,.409,1.23,1.414,1.414,0,0,0,1.094.421,3.712,3.712,0,0,0,1.47-.311v.621a3.649,3.649,0,0,1-.7.229A3.93,3.93,0,0,1,164.822,87.292Zm-.189-4.187a1.137,1.137,0,0,0-.884.361,1.663,1.663,0,0,0-.388,1h2.406a1.536,1.536,0,0,0-.294-1.01A1.034,1.034,0,0,0,164.633,83.105Z"/>
      <path class="d" d="M170.232,82.522a2.706,2.706,0,0,1,.55.05l-.1.647a2.306,2.306,0,0,0-.5-.063,1.226,1.226,0,0,0-.955.453,1.652,1.652,0,0,0-.4,1.13v2.468h-.7v-4.6h.576l.079.852h.034a2.005,2.005,0,0,1,.617-.693A1.392,1.392,0,0,1,170.232,82.522Z"/>
      <path class="d" d="M174.9,87.207l-.138-.655h-.034a1.924,1.924,0,0,1-.686.586,2.1,2.1,0,0,1-.855.154,1.535,1.535,0,0,1-1.072-.353,1.284,1.284,0,0,1-.389-1q0-1.394,2.23-1.461l.781-.025v-.286a1.166,1.166,0,0,0-.233-.8.957.957,0,0,0-.746-.259,3.038,3.038,0,0,0-1.3.353l-.214-.534a3.269,3.269,0,0,1,.745-.289,3.226,3.226,0,0,1,.812-.105,1.75,1.75,0,0,1,1.22.365,1.524,1.524,0,0,1,.4,1.172v3.14Zm-1.574-.491a1.412,1.412,0,0,0,1.022-.357,1.319,1.319,0,0,0,.372-1v-.416l-.7.03a2.537,2.537,0,0,0-1.2.258.778.778,0,0,0-.367.712.717.717,0,0,0,.229.575A.95.95,0,0,0,173.328,86.716Z"/>
      <path class="d" d="M178.771,86.716a2.306,2.306,0,0,0,.357-.027,2.171,2.171,0,0,0,.273-.057v.534a1.306,1.306,0,0,1-.334.09,2.606,2.606,0,0,1-.4.036q-1.335,0-1.335-1.407V83.147h-.659v-.336l.659-.289.294-.983h.4v1.067h1.335v.541h-1.335v2.708a.931.931,0,0,0,.2.639A.686.686,0,0,0,178.771,86.716Z"/>
      <path class="d" d="M182.694,87.292a2.115,2.115,0,0,1-1.61-.622,2.408,2.408,0,0,1-.59-1.726,2.673,2.673,0,0,1,.548-1.768,1.821,1.821,0,0,1,1.472-.654,1.733,1.733,0,0,1,1.369.569,2.178,2.178,0,0,1,.5,1.5v.44h-3.17a1.815,1.815,0,0,0,.409,1.23,1.411,1.411,0,0,0,1.093.421,3.708,3.708,0,0,0,1.47-.311v.621a3.618,3.618,0,0,1-.7.229A3.941,3.941,0,0,1,182.694,87.292Zm-.188-4.187a1.136,1.136,0,0,0-.884.361,1.67,1.67,0,0,0-.389,1h2.406a1.53,1.53,0,0,0-.294-1.01A1.034,1.034,0,0,0,182.506,83.105Z"/>
    </g>
    <g>
      <path class="d" d="M158.579,108.207h-.714v-5.5h-1.944v-.634h4.6v.634h-1.944Z"/>
      <path class="d" d="M163.716,108.292a2.115,2.115,0,0,1-1.61-.622,2.4,2.4,0,0,1-.59-1.726,2.667,2.667,0,0,1,.548-1.768,1.819,1.819,0,0,1,1.471-.654,1.733,1.733,0,0,1,1.369.569,2.178,2.178,0,0,1,.5,1.5v.44h-3.17a1.82,1.82,0,0,0,.409,1.23,1.414,1.414,0,0,0,1.094.421,3.712,3.712,0,0,0,1.47-.311v.621a3.649,3.649,0,0,1-.7.229A3.93,3.93,0,0,1,163.716,108.292Zm-.189-4.187a1.137,1.137,0,0,0-.884.361,1.663,1.663,0,0,0-.388,1h2.406a1.536,1.536,0,0,0-.294-1.01A1.034,1.034,0,0,0,163.527,104.105Z"/>
      <path class="d" d="M170,106.952a1.155,1.155,0,0,1-.479.991,2.253,2.253,0,0,1-1.344.349,2.92,2.92,0,0,1-1.427-.29v-.647a3.473,3.473,0,0,0,.712.265,2.982,2.982,0,0,0,.732.1,1.664,1.664,0,0,0,.84-.174.6.6,0,0,0,.061-.991,3.632,3.632,0,0,0-.909-.451,4.942,4.942,0,0,1-.913-.418,1.256,1.256,0,0,1-.4-.405,1.059,1.059,0,0,1-.132-.542,1.033,1.033,0,0,1,.458-.888,2.132,2.132,0,0,1,1.255-.325,3.664,3.664,0,0,1,1.453.3l-.247.567a3.327,3.327,0,0,0-1.256-.286,1.45,1.45,0,0,0-.747.155.482.482,0,0,0-.252.429.522.522,0,0,0,.094.315.93.93,0,0,0,.3.248,6.867,6.867,0,0,0,.806.34,2.993,2.993,0,0,1,1.106.6A1.057,1.057,0,0,1,170,106.952Z"/>
      <path class="d" d="M173.045,107.716a2.306,2.306,0,0,0,.357-.027,2.211,2.211,0,0,0,.273-.057v.534a1.306,1.306,0,0,1-.334.09,2.606,2.606,0,0,1-.4.036q-1.335,0-1.335-1.407v-2.738h-.659v-.336l.659-.289.294-.983h.4v1.067h1.335v.541h-1.335v2.708a.931.931,0,0,0,.2.639A.688.688,0,0,0,173.045,107.716Z"/>
    </g>
    <g>
      <g>
        <path class="f" d="M70.528,150.772H29.239a6.163,6.163,0,0,1-6.144-6.145V105.422a6.163,6.163,0,0,1,6.144-6.145h53.4a6.163,6.163,0,0,1,6.145,6.145l-.035,22.945"/>
        <line class="g" x1="23.165" y1="114.892" x2="88.786" y2="114.892"/>
      </g>
      <g class="b">
        <g>
          <line class="c" x1="41.08" y1="121.606" x2="51.912" y2="121.606"/>
          <line class="c" x1="54.607" y1="121.606" x2="68.951" y2="121.606"/>
          <line class="c" x1="74.584" y1="126.528" x2="50.266" y2="126.528"/>
          <line class="c" x1="47.571" y1="126.528" x2="39.487" y2="126.528"/>
          <line class="c" x1="64.855" y1="131.438" x2="39.377" y2="131.438"/>
          <line class="c" x1="44.53" y1="137.902" x2="56.33" y2="137.902"/>
          <line class="c" x1="59.246" y1="137.902" x2="68.695" y2="137.902"/>
          <line class="c" x1="62.806" y1="142.941" x2="39.41" y2="142.941"/>
        </g>
      </g>
      <line class="c" x1="34.252" y1="121.606" x2="38.267" y2="121.606"/>
      <line class="c" x1="34.033" y1="137.902" x2="41.636" y2="137.902"/>
      <g>
        <path class="d" d="M31.919,110.538a.769.769,0,0,0,.254.644,1.222,1.222,0,0,0,.746.208V112a2,2,0,0,1-1.279-.378,1.269,1.269,0,0,1-.452-1.039v-1.318a.732.732,0,0,0-.274-.645,1.364,1.364,0,0,0-.8-.194v-.613a1.362,1.362,0,0,0,.818-.209.74.74,0,0,0,.252-.618v-1.33a1.266,1.266,0,0,1,.47-1.048,1.969,1.969,0,0,1,1.261-.374v.6q-1,.027-1,.866v1.282a1.029,1.029,0,0,1-.97,1.105v.052a1.029,1.029,0,0,1,.97,1.105Z"/>
        <path class="d" d="M38.543,110.59l-.791-2.022H35.2l-.783,2.022h-.748l2.513-6.383h.622l2.5,6.383ZM37.521,107.9l-.739-1.97q-.144-.374-.3-.917a8.246,8.246,0,0,1-.274.917l-.748,1.97Z"/>
        <path class="d" d="M44.658,106.085A1.779,1.779,0,0,1,44,107.57a2.983,2.983,0,0,1-1.885.52h-.748v2.5h-.74v-6.357h1.648Q44.659,104.233,44.658,106.085Zm-3.291,1.37h.665a2.479,2.479,0,0,0,1.422-.317,1.17,1.17,0,0,0,.439-1.018,1.1,1.1,0,0,0-.413-.939,2.157,2.157,0,0,0-1.287-.309h-.826Z"/>
        <path class="d" d="M46.434,110.59v-6.357h.739v6.357Z"/>
        <path class="d" d="M50.758,108.09a1.029,1.029,0,0,1-.969-1.105V105.7q0-.84-.987-.866v-.6a1.914,1.914,0,0,1,1.258.379,1.278,1.278,0,0,1,.459,1.043v1.33a.732.732,0,0,0,.257.62,1.391,1.391,0,0,0,.822.207v.613a1.385,1.385,0,0,0-.8.194.735.735,0,0,0-.274.645v1.318a1.277,1.277,0,0,1-.445,1.037A1.966,1.966,0,0,1,48.8,112v-.609a1.194,1.194,0,0,0,.734-.208.771.771,0,0,0,.253-.644v-1.291a1.08,1.08,0,0,1,.239-.757,1.254,1.254,0,0,1,.73-.348Z"/>
      </g>
    </g>
  </g>
  <g>
    <path class="h" d="M95.052,150.609l-10.915-8.864,0-.011-.006,0v.006l-.005,0v.008l.005.011-.021,14.06,3.255-2.621,2.215,4.666,1.8-.854.011,0,1.8-.855-2.219-4.664Z"/>
    <line class="i" x1="78.743" y1="148.834" x2="77.07" y2="149.89"/>
    <line class="i" x1="77.411" y1="143.51" x2="75.116" y2="143.589"/>
    <line class="i" x1="79.03" y1="138.41" x2="77.146" y2="137.097"/>
    <line class="i" x1="84.641" y1="136.142" x2="84.574" y2="133.721"/>
    <line class="i" x1="90.29" y1="138.093" x2="91.972" y2="136.546"/>
    <line class="i" x1="92.308" y1="143.137" x2="94.729" y2="142.734"/>
  </g>
  <g>
    <circle class="j" cx="145.661" cy="167.139" r="20.616"/>
    <g class="b">
      <circle class="k" cx="145.661" cy="167.093" r="20.616"/>
    </g>
    <polyline class="l" points="136.535 168.966 142.478 174.91 155.612 161.776"/>
  </g>
  <path class="m" d="M163.209,116.564a39.543,39.543,0,0,1-3.642,27.181"/>
  <path class="m" d="M117.931,164.035a39.223,39.223,0,0,1-18.142-8.36"/>
</svg>
